<svg id="Capa_1" data-name="Capa 1" xmlns="http://www.w3.org/2000/svg" viewBox="0 0 592.34 673.01"><defs><style>.cls-1{fill:#fff;}.cls-2{fill:#2980ff;}</style></defs><title>logossuitemig</title><path d="M5067.78,6029.33v301a35.46,35.46,0,0,1-17.73,30.71L4789.34,6511.6a35.45,35.45,0,0,1-35.47,0l-260.7-150.52a35.46,35.46,0,0,1-17.73-30.71v-301a35.49,35.49,0,0,1,17.73-30.72l260.7-150.52a35.5,35.5,0,0,1,35.47,0L5050,5998.61A35.49,35.49,0,0,1,5067.78,6029.33Z" transform="translate(-4475.44 -5843.34)"/><path class="cls-1" d="M4719,6162.83l-40.21,97.09H4669l-40-97.09v97.09h-22.95V6129.09h32.36l35.5,86.1,35.7-86.1H4742v130.82H4719v-97.09Z" transform="translate(-4475.44 -5843.34)"/><path class="cls-1" d="M4769.83,6129.09h22.95v130.82h-22.95V6129.09Z" transform="translate(-4475.44 -5843.34)"/><path class="cls-1" d="M4883.39,6126.93c25.5,0,42.17,12.16,52.76,27.26l-18.83,10.59a41.66,41.66,0,0,0-33.93-17.46c-25.89,0-45.11,19.81-45.11,47.27s19.22,47.46,45.11,47.46c13.34,0,25.11-6.28,31-11.77v-20.4h-39v-20.2h62v49c-12.95,14.32-31.19,23.73-53.94,23.73-37.86,0-68.65-26.87-68.65-67.86S4845.54,6126.93,4883.39,6126.93Z" transform="translate(-4475.44 -5843.34)"/><path class="cls-2" d="M4699.34,6082.62a16.35,16.35,0,0,0,12,5.23c5.46,0,7.62-2.67,7.62-5.17,0-3.41-4-4.43-8.64-5.63-6.2-1.53-13.47-3.35-13.47-11.37,0-6.25,5.51-11.08,13.81-11.08,5.91,0,10.69,1.88,14.21,5.29l-3.81,4.94a15.41,15.41,0,0,0-11-4.32c-3.92,0-6.42,1.88-6.42,4.72s3.87,3.92,8.36,5.06c6.25,1.59,13.7,3.52,13.7,11.77,0,6.31-4.43,11.71-14.66,11.71-7,0-12.05-2.44-15.4-6Z" transform="translate(-4475.44 -5843.34)"/><path class="cls-2" d="M4731.85,6055.16h6.71v22.74c0,6,3.35,9.95,9.72,9.95s9.66-3.92,9.66-9.95v-22.74h6.71v22.91c0,9.44-5.4,15.69-16.37,15.69s-16.43-6.31-16.43-15.63v-23Z" transform="translate(-4475.44 -5843.34)"/><path class="cls-2" d="M4772.72,6055.16h6.65v37.91h-6.65v-37.91Z" transform="translate(-4475.44 -5843.34)"/><path class="cls-2" d="M4796.48,6061H4785v-5.85h29.61V6061h-11.48v32.06h-6.65V6061Z" transform="translate(-4475.44 -5843.34)"/><path class="cls-2" d="M4820.24,6055.16h26V6061h-19.33v9.83h18.93v5.85h-18.93v10.52h19.33v5.85h-26v-37.91Z" transform="translate(-4475.44 -5843.34)"/><path class="cls-2" d="M4800.52,6291.83a61,61,0,0,1,0,117.79v-12.31A49.54,49.54,0,0,0,4834,6350.6c0-21.6-14.17-40-33.46-46.7v-12.07h0Zm0,100.14a48.54,48.54,0,0,0,15.34-10,44.86,44.86,0,0,0,13-31.36,49.37,49.37,0,0,0-.46-5.81h-1.63a48.4,48.4,0,0,1,.47,5.81,43.08,43.08,0,0,1-12.55,30.21,41.75,41.75,0,0,1-14.17,9.29V6392h0Zm0-5.81a39.44,39.44,0,0,0,23-35.55,49.86,49.86,0,0,0-.47-5.81h-1.63a49.09,49.09,0,0,1,.46,5.81A37.21,37.21,0,0,1,4811,6377.1a35.21,35.21,0,0,1-10.46,7.2v1.86h0Zm0-5.81a38.15,38.15,0,0,0,7.9-5.8,34.34,34.34,0,0,0,9.75-23.93,24.61,24.61,0,0,0-.46-5.81h-1.63a24.71,24.71,0,0,1,.7,5.81,32.33,32.33,0,0,1-9.53,22.78,35.7,35.7,0,0,1-6.73,5.34v1.62h0Zm0-6.51c1.39-1.16,2.56-2.09,4-3.47a27.93,27.93,0,0,0,8.14-19.76,24.83,24.83,0,0,0-.7-5.81h-1.63a24.75,24.75,0,0,1,.7,5.81,26.12,26.12,0,0,1-7.67,18.59,25.2,25.2,0,0,1-2.79,2.55v2.09h0Zm0-7v-0.23a22.1,22.1,0,0,0,6.73-16,24.48,24.48,0,0,0-.7-5.81h-1.62a24.69,24.69,0,0,1,.7,5.81,21,21,0,0,1-5.11,13.95v2.32h0Zm0-10,0.23,0.23c1.86-5.34,0-12.32,0-12.32h-0.23v12.08h0Zm0-21.14,0.47-.7-0.47-.46h0v1.16h0Zm0-6c0.94,0.69,1.86,1.62,2.79,2.33a0.46,0.46,0,0,0,.23.46l1.17-1.39c-0.24,0-.24,0-0.24-0.24a50.58,50.58,0,0,0-4-3.25v2.09h0Zm0-7a35.79,35.79,0,0,1,6.73,5.35h0.24l0.93-1.16h0a31.47,31.47,0,0,0-7.9-5.8v1.62h0Zm0-5.81a40.76,40.76,0,0,1,10.46,7.44h0l0.93-1.17a38.3,38.3,0,0,0-11.38-7.89v1.62h0Zm0-5.58a43.1,43.1,0,0,1,13.94,9.3l1.16-1.16a46.32,46.32,0,0,0-15.1-10v1.86h0Zm-3-20.21c0.93,0.23,1.86.46,3,.7v12.07c-1.17-.23-2.09-0.46-3-0.7v-12.08h0Zm3,118.49c-1.17.23-2.09,0.47-3,.69v-12.08a21.61,21.61,0,0,0,3-.93v12.31h0Zm0-100.14v1.86c-1.17-.46-2.09-0.69-3-1.16v-1.62c0.93,0.22,1.86.69,3,.92h0Zm0,5.82v1.62c-1.17-.46-2.09-0.7-3-1.17v-1.62a24.33,24.33,0,0,1,3,1.17h0Zm0,5.8v1.62c-0.93-.46-2.09-0.92-3-1.39v-1.62a8.64,8.64,0,0,1,3,1.39h0Zm0,6.5v2.09a20.36,20.36,0,0,0-3-1.86V6326a19.07,19.07,0,0,1,3,1.62h0Zm0,7v1.16l-0.7.47c0-.23-0.23-0.23-0.23-0.47h0c-0.69-.46-1.4-1.16-2.1-1.62V6332a15.21,15.21,0,0,1,3,2.55h0Zm0,10.22v12.08l-1.17-.46c1.63-4.65,0-11.39,0-11.39l1.17-.23h0Zm0,19.75v2.32a14.75,14.75,0,0,1-3,2.32v-1.86c0.7-.46,1.4-1.17,2.1-1.62a4,4,0,0,1,.93-1.16h0Zm0,7.2v2.09c-0.93.47-2.09,1.17-3,1.63v-1.87a20.15,20.15,0,0,0,3-1.85h0Zm0,7v1.62c-0.93.47-2.09,0.94-3,1.4v-1.62c0.93-.46,2.1-0.93,3-1.39h0Zm0,5.58v1.86c-1.17.46-2.09,0.7-3,1.16v-1.63c0.93-.46,1.86-0.93,3-1.39h0Zm0,5.81V6392a7.43,7.43,0,0,1-1.85.45h0l-1.17-.92v-0.23c0.93-.46,1.86-0.7,3-1.16h0Zm-3,5.58v-1.17A1.06,1.06,0,0,1,4797.49,6395.68Zm-2.55-105a9.83,9.83,0,0,1,2.55.47v12.08c-0.92-.22-1.62-0.46-2.55-0.69v-11.85h0Zm2.55,119.65a10.26,10.26,0,0,0-2.55.47v-11.85c0.93-.24,1.63-0.47,2.55-0.7v12.08h0Zm0-101.75v1.62c-0.92-.23-1.62-0.46-2.55-0.7v-1.63c0.93,0.24,1.63.47,2.55,0.71h0Zm0,5.57v1.62c-0.92-.23-1.62-0.69-2.55-0.93v-1.62c0.93,0.23,1.63.69,2.55,0.93h0Zm0,5.58v1.62c-0.92-.46-1.62-0.69-2.55-1.16v-1.4a11,11,0,0,1,2.55.93h0Zm0,6.27v1.86a23.67,23.67,0,0,0-2.55-1.39v-1.87c0.93,0.47,1.63.93,2.55,1.4h0Zm0,6v2.09a9.9,9.9,0,0,0-2.55-1.86v-1.63a23.86,23.86,0,0,1,2.55,1.4h0Zm0,35.31v1.86a9.5,9.5,0,0,1-2.55,1.63v-1.63a23.66,23.66,0,0,0,2.55-1.86h0Zm0,6.27v1.87a12.08,12.08,0,0,1-2.55,1.16V6375a23,23,0,0,0,2.55-1.4h0Zm0,6.51v1.62a10.82,10.82,0,0,1-2.55.93V6381a11,11,0,0,0,2.55-.93h0Zm0,5.57v1.63c-0.92.23-1.62,0.46-2.55,0.7v-1.62c0.93-.24,1.63-0.46,2.55-0.7h0Zm0,5.58v0.23l-0.23-.23h0.23Zm0,3.25v1.17a3.79,3.79,0,0,1-1.86.7,0.7,0.7,0,0,0-.69,0v-4.65l0.93,0.93a5.31,5.31,0,0,1,1.62,1.85h0Zm-2.55-39v-9.06A29.62,29.62,0,0,1,4794.94,6355.49Zm-0.7-65.06,0.7,0.24v11.85l-0.7-.23v-11.86h0Zm0.7,120.35h-0.7v-11.85h0.7v11.85h0Zm0-102.93v1.63a0.87,0.87,0,0,1-.7-0.23v-1.63l0.7,0.23h0Zm0,5.35v1.62a0.86,0.86,0,0,1-.7-0.23V6313l0.7,0.23h0Zm0,5.57v1.4a0.84,0.84,0,0,1-.7-0.23v-1.39a0.87,0.87,0,0,1,.7.23h0Zm0,5.81v1.87c-0.24,0-.47-0.24-0.7-0.24v-1.85a0.86,0.86,0,0,0,.7.23h0Zm0,6v1.63c-0.24,0-.47-0.23-0.7-0.23v-1.87c0.23,0.24.46,0.24,0.7,0.47h0Zm0,15.8v9.06a3.32,3.32,0,0,1-.47,1.39h-0.23V6344.8h0.23s0.23,0.7.47,1.63h0Zm0,22.77v1.63l-0.47.24v-1.86h0.47Zm0,5.81v1.63l-0.47.24V6375h0.47Zm0,6v1.63l-0.47.24v-1.62l0.47-.24h0Zm0,5.35V6388l-0.47.23v-1.62l0.47-.23h0Zm0,5.34v4.65h-0.7V6391Zm-10.22-102a67.41,67.41,0,0,1,9.52.69v11.86a66.19,66.19,0,0,0-9.52-.93v-11.62h0Zm9.52,121a65.37,65.37,0,0,1-9.52.92v-11.85a44.58,44.58,0,0,0,9.52-.92v11.85h0Zm0-103.16v1.63a42.91,42.91,0,0,0-9.52-.94h0v-1.62h0a42.91,42.91,0,0,1,9.52.92h0Zm0,5.35v1.63a42.5,42.5,0,0,0-9.52-1.17v-1.62a42.62,42.62,0,0,1,9.52,1.16h0Zm0,5.58v1.39a32.56,32.56,0,0,0-9.52-1.39v-1.4a32.54,32.54,0,0,1,9.52,1.4h0Zm0,5.81v1.85a26.8,26.8,0,0,0-9.52-1.85v-1.63a32.58,32.58,0,0,1,9.52,1.63h0Zm0,5.8V6332a19.22,19.22,0,0,0-9.52-2.33v-1.63a22.87,22.87,0,0,1,9.52,2.09h0Zm0,14.64v12.08l-1.16-.46c1.63-4.65,0-11.39,0-11.39l1.16-.23h0Zm0,46.23v5.35a0.46,0.46,0,0,0-.47-0.24c-0.23,0-3.94.24-4.64-.92s-3.72-.93-3.26-1.17h-1.15v-30.9h7.89v25.09c-0.23,1.4-.47.93,1.63,2.79h0Zm-9.52-34.15V6345h5.81v11.85h-5.81Zm0-67.14h0v11.62h0a49.25,49.25,0,1,0,0,98.5h0v11.85h0a61,61,0,1,1,0-122h0Zm0,17a44,44,0,0,0-31.14,75.26,46.13,46.13,0,0,0,18.12,10.92v-0.22l0.93-.93,0.46-.23a40.46,40.46,0,0,1-18.35-10.69,43.06,43.06,0,0,1-12.55-30.21,42.5,42.5,0,0,1,12.55-30,41.9,41.9,0,0,1,30-12.32v-1.62h0Zm0,5.11h0a39.82,39.82,0,0,0-27.65,11.38,39.24,39.24,0,0,0-11.38,27.41,38.79,38.79,0,0,0,11.38,27.41,37.32,37.32,0,0,0,17.89,10.22h0v-1.62a37.61,37.61,0,0,1-16.73-9.52,37.3,37.3,0,0,1,26.49-63.67h0v-1.62h0Zm0,5.34h0a33.93,33.93,0,0,0-23.93,9.76,33.38,33.38,0,0,0-9.76,23.7,34.35,34.35,0,0,0,9.76,23.93,36.39,36.39,0,0,0,14.17,8.37v-1.62a29.94,29.94,0,0,1-13-7.9,32.37,32.37,0,0,1-9.52-22.78,32.52,32.52,0,0,1,32.3-32.06h0v-1.4h0Zm0,5.58h0a27.92,27.92,0,0,0-20,8.14,28.75,28.75,0,0,0-8.13,19.74,27.92,27.92,0,0,0,8.13,19.76,26.58,26.58,0,0,0,10.22,6.51v-1.63a27.05,27.05,0,0,1-9.06-6,26.12,26.12,0,0,1-7.67-18.59,26.19,26.19,0,0,1,26.49-26.25h0v-1.63h0Zm0,5.35h0a22.61,22.61,0,0,0-22.78,22.53,22.12,22.12,0,0,0,6.74,16,21.14,21.14,0,0,0,6.27,4.65v-1.87a27.46,27.46,0,0,1-5.34-3.71,22.06,22.06,0,0,1-6-15.11,21.49,21.49,0,0,1,6-14.86,22.11,22.11,0,0,1,15.11-6h0v-1.63h0Zm0,17h-5.82v11.85h5.82V6345h0Zm0,18.12H4777l-0.23,24.63c0,0.7.47,3-1.16,4.19-1.86,1.39-6,4.41-.92,4.41,5.34-.24,5.11,0,5.11,0a2.61,2.61,0,0,0,2.33-1.16c0.46-.7,1.62-0.93,2.55-1.17v-30.9Z" transform="translate(-4475.44 -5843.34)"/></svg>